<?xml version="1.0" standalone="no"?>
<!DOCTYPE svg PUBLIC "-//W3C//DTD SVG 1.1//EN" "http://www.w3.org/Graphics/SVG/1.1/DTD/svg11.dtd" >
<svg xmlns="http://www.w3.org/2000/svg" xmlns:xlink="http://www.w3.org/1999/xlink" version="1.1">
<metadata>
Created by FontForge 20160407 at Fri May 13 18:25:26 2016
 By Jimmy Wärting

</metadata>
<defs>
<font id="HappyFox-Condensed" horiz-adv-x="270" >
  <font-face 
    font-family="Happy Fox"
    font-weight="400"
    font-stretch="condensed"
    units-per-em="1000"
    panose-1="0 0 5 6 0 0 0 0 0 0"
    ascent="800"
    descent="-200"
    x-height="727"
    cap-height="725"
    bbox="-8.06317 -120.205 572.594 958.697"
    underline-thickness="50"
    underline-position="-100"
    unicode-range="U+0020-2212"
  />
<missing-glyph horiz-adv-x="500" 
d="M0 0v700h500v-700h-500zM250 395l170 255h-340zM280 350l170 -255v510zM80 50h340l-170 255zM50 605v-510l170 255z" />
    <glyph glyph-name=".notdef" horiz-adv-x="500" 
d="M0 0v700h500v-700h-500zM250 395l170 255h-340zM280 350l170 -255v510zM80 50h340l-170 255zM50 605v-510l170 255z" />
    <glyph glyph-name="A" unicode="A" horiz-adv-x="301" 
d="M163 727c-41 28 -57 -75 -66 -125c-5 -25 -60 -253 -64 -291c-7 -60 -24 -125 -27 -181c-3 -41 -13 -88 9 -122c8 -10 31 -10 47 -3c14 0 15 97 21 148s15 103 27 144c18 2 46 -2 61 4c15 -44 22 -103 37 -171c16 -72 16 -152 84 -110c9 28 -10 101 -25 161
c-38 154 -53 316 -79 462c-5 30 -10 74 -25 84zM134 454c1 5 6 28 8 27c9 -4 14 -80 14 -102c-18 -10 -21 -3 -37 -3c5 27 8 46 15 78z" />
    <glyph glyph-name="B" unicode="B" horiz-adv-x="258" 
d="M173 486c57 40 89 116 57 188c-9 20 -28 39 -42 52c-26 22 -69 34 -109 29c-36 -5 -68 -14 -73 -55c-5 -51 6 -111 7 -170c1 -61 3 -109 4 -159c3 -82 3 -177 10 -254c1 -48 2 -83 24 -99s83 -27 114 -12c53 22 68 89 78 160c8 76 -3 140 -22 208c-11 47 -31 83 -48 112z
M92 456c47 -6 67 -55 79 -116c14 -80 13 -146 0 -218c-4 -23 -35 -69 -61 -61c-19 8 -14 58 -15 90c-3 102 -4 199 -8 299c0 3 2 5 5 6zM87 532c-1 56 -10 116 -8 168c49 9 90 -20 97 -61c12 -61 -29 -111 -89 -107z" />
    <glyph glyph-name="C" unicode="C" horiz-adv-x="252" 
d="M106 733c-43 -7 -79 -53 -90 -90c-17 -56 -13 -171 -11 -267c1 -60 6 -131 8 -177c5 -64 10 -121 32 -157c38 -65 139 -64 181 -4c5 8 21 25 19 40c0 5 -14 32 -33 26c-50 -16 -1 -43 -66 -55c-41 -8 -51 88 -55 126c-13 112 -12 229 -9 353c1 43 -1 143 51 128
c28 -8 28 -16 44 -52c9 -20 63 -1 47 45c-7 22 -21 53 -40 64c-19 13 -65 22 -78 20z" />
    <glyph glyph-name="D" unicode="D" horiz-adv-x="303" 
d="M50 0c188 0 242 244 240 432c-3 149 -18 247 -133 304c-68 21 -129 10 -133 -19c-28 0 -29 -697 -5 -712c15 -5 15 -5 31 -5zM86 85c-13 0 -21 588 7 601c48 0 78 -36 95 -74c59 -130 36 -397 -45 -488c-15 -16 -39 -35 -57 -39z" />
    <glyph glyph-name="E" unicode="E" horiz-adv-x="251" 
d="M80 651c40 27 96 -2 120 38c15 26 -7 47 -43 41c-30 -5 -96 -10 -119 -22c-27 -14 -31 -43 -27 -89c4 -40 9 -85 11 -131c4 -99 24 -403 27 -438c0 -8 1 -51 31 -51c43 3 88 7 133 12c13 0 28 39 14 47c-26 13 -70 12 -103 3c-13 89 -12 184 -22 276c20 7 37 11 40 31
c5 27 -20 32 -47 37c1 82 -16 166 -15 246z" />
    <glyph glyph-name="F" unicode="F" horiz-adv-x="230" 
d="M226 712c-5 42 -89 21 -132 12c-20 -4 -35 0 -57 -1c-41 -12 -21 -66 -17 -124c31 -544 21 -633 99 -587c22 13 9 82 7 129c-5 114 -27 235 -25 340c14 5 52 2 48 43c-8 21 -40 22 -56 22c-3 38 -11 74 -6 113c37 7 145 2 139 53z" />
    <glyph glyph-name="G" unicode="G" horiz-adv-x="255" 
d="M207 595c-5 1 -8 0 -9 -2c-1 -6 4 -6 9 -6v8zM169 329c16 0 8 -102 3 -156c-3 -33 -6 -73 -26 -97c-18 -22 -39 -9 -43 6c-20 60 -26 138 -27 209c-1 47 3 89 1 139c-2 43 -5 92 0 144c4 36 16 103 44 105c30 2 37 -47 58 -50c16 -1 26 19 28 28c8 44 -47 100 -91 89
c-127 -32 -109 -161 -103 -455c5 -94 8 -234 52 -268c8 -17 56 -24 80 -16c30 8 55 46 66 77c26 77 20 203 21 279c5 27 -118 41 -118 20c-4 -9 -3 -24 -5 -33c0 -17 60 -6 60 -21z" />
    <glyph glyph-name="H" unicode="H" horiz-adv-x="250" 
d="M194 742c-19 0 -20 -12 -26 -26c-15 -39 8 -263 -4 -278c-1 -1 -82 -10 -82 -2c-13 13 8 281 -18 293c-28 11 -42 -12 -45 -29c-4 -24 -1 -67 -1 -100c0 -134 -1 -261 -1 -397c0 -79 -13 -203 19 -202c14 -1 30 -7 37 6c14 25 9 75 7 108c-4 75 -5 245 4 245
c18 4 75 11 80 2c5 -73 9 -180 8 -283c0 -25 -2 -48 9 -70c15 -11 21 -9 35 -5c11 6 19 21 19 38c-1 227 -8 474 -17 690c0 10 -12 10 -24 10z" />
    <glyph glyph-name="I" unicode="I" horiz-adv-x="130" 
d="M93 30c-8 147 14 314 8 460c-2 58 5 132 -6 195c-3 23 -13 50 -34 40c-38 -15 -26 -62 -27 -115c0 -141 -7 -351 -9 -499c-1 -38 -3 -79 19 -101c5 -6 19 -13 37 -4c2 1 12 -1 12 24z" />
    <glyph glyph-name="J" unicode="J" horiz-adv-x="232" 
d="M204 736c-9 1 -24 5 -31 0c-26 0 -22 -238 -31 -371c-2 -53 0 -283 -32 -288c-24 -4 -43 39 -43 59c0 49 -56 51 -60 20c-4 -34 12 -78 20 -92c16 -26 40 -52 70 -56c94 -13 101 108 104 185c5 126 7 287 13 416c3 48 13 127 -10 127z" />
    <glyph glyph-name="K" unicode="K" 
d="M116 443c52 91 62 121 104 210c6 11 29 53 22 72c-6 20 -39 8 -49 0c-40 -35 -60 -137 -99 -166c-3 52 -2 117 -7 166c-24 21 -49 0 -55 -23c-4 -13 -3 -28 -2 -46c5 -190 -27 -452 -20 -649c0 -20 66 -20 66 4c0 133 -8 229 11 342c39 -95 72 -187 100 -288
c6 -20 6 -33 30 -48c13 -10 45 -4 50 17c9 36 -24 112 -28 122c-62 168 -71 195 -123 287z" />
    <glyph glyph-name="L" unicode="L" horiz-adv-x="240" 
d="M82 87c-13 178 14 365 0 548c-2 41 -5 126 -54 100c-27 -5 -10 -101 -10 -160c0 -101 2 -207 -5 -303c-1 -59 -21 -257 25 -257c17 0 105 -13 162 -10c19 0 29 20 24 49c-8 25 -145 13 -142 33z" />
    <glyph glyph-name="M" unicode="M" horiz-adv-x="294" 
d="M69 746c-61 11 -45 -38 -46 -83c-3 -115 -1 -263 -9 -402c-2 -33 2 -67 2 -100c1 -56 -6 -105 7 -146c5 -11 18 -14 31 -8c22 9 17 51 19 82c3 55 -1 121 2 188c3 63 5 127 5 180c0 34 2 56 2 101c5 -4 5 -4 11 -19c4 -13 31 -77 52 -81c9 -3 10 -7 34 30
c34 61 34 65 44 71c-7 -113 -11 -354 -11 -461c0 -27 -6 -70 1 -84c5 -9 19 -16 32 -12c15 3 27 10 27 31c1 194 4 423 10 613c1 28 9 74 0 80c-8 12 -27 15 -41 7c-5 -3 -7 -9 -14 -20c-11 -20 -67 -155 -79 -155c-8 0 -17 34 -24 50c-2 7 -8 24 -11 31
c-7 19 -26 107 -44 107z" />
    <glyph glyph-name="N" unicode="N" 
d="M98 723c-25 38 -55 29 -65 13c-12 -47 -10 -103 -10 -155c0 -116 -11 -283 -8 -401c0 -22 1 -52 0 -80c-1 -42 -11 -94 22 -96c51 -3 45 86 45 147c0 22 3 318 3 336c10 -23 8 -35 13 -54c1 -3 54 -236 54 -265c0 -23 13 -97 15 -114c8 -63 49 -65 54 -40
c22 125 10 277 19 425c5 81 -4 171 -2 241c0 24 1 58 -31 52c-27 10 -38 -32 -37 -70l10 -330c-8 53 -67 352 -82 391z" />
    <glyph glyph-name="O" unicode="O" horiz-adv-x="247" 
d="M226 435c0 49 -2 110 -2 155c0 22 -13 89 -18 97c-25 37 -60 57 -122 46c-22 -4 -44 -27 -55 -46c-20 -36 -19 -95 -19 -156c0 -41 3 -84 0 -125c-4 -88 -2 -175 -7 -245c-1 -14 1 -40 3 -55c2 -23 12 -39 22 -55c17 -29 52 -54 99 -49c21 2 49 25 61 44
c17 26 23 72 25 119c1 49 7 93 9 133c4 46 5 91 4 137zM150 654c11 -24 13 -41 15 -62c3 -33 1 -317 -13 -390c-7 -36 7 -129 -33 -129c-79 1 -54 89 -54 167c0 82 5 185 1 274c-2 72 -10 136 37 155c19 9 41 -5 47 -15z" />
    <glyph glyph-name="P" unicode="P" 
d="M95 500c0 14 97 3 124 32c33 35 43 69 39 121c-2 23 -6 67 -27 82c-47 34 -192 38 -212 27c-18 -4 -11 -92 -11 -131c0 -68 4 -404 0 -587c2 -22 3 -44 23 -48c61 -21 43 77 48 129c11 123 3 375 16 375zM76 579c-4 40 -9 117 -4 121c-5 14 106 17 126 -11
c16 -18 10 -87 -3 -101c-22 -24 -119 -23 -119 -9z" />
    <glyph glyph-name="Q" unicode="Q" horiz-adv-x="417" 
d="M241 142c-25 -16 -21 15 -44 22c-7 2 -14 4 -20 0c-19 -9 23 -93 15 -93c-69 0 -77 86 -90 159c-12 76 -26 192 -20 284c3 44 13 98 29 122c19 28 59 44 87 18c39 -33 57 -125 57 -192c0 -115 14 -238 -14 -320zM246 708c-24 19 -56 31 -92 31c-29 0 -53 -13 -72 -26
c-111 -79 -83 -350 -66 -444c16 -87 17 -146 52 -196c35 -49 79 -72 141 -59c12 3 22 11 32 12c29 -24 67 -33 107 -7c19 11 36 33 46 52c13 26 1 77 -44 75c-37 -3 3 -67 -32 -73c-14 -2 -20 -3 -32 12c18 35 22 75 32 123c7 28 10 62 11 92c4 85 1 159 -9 230
c-11 75 -48 155 -74 178z" />
    <glyph glyph-name="R" unicode="R" horiz-adv-x="305" 
d="M192 443c13 11 40 24 55 46c42 40 58 120 18 185c-47 75 -225 73 -237 56c-30 7 -14 -173 -14 -267c0 -142 -13 -291 -9 -441c22 -44 76 -22 76 66c0 103 7 227 5 335c34 5 49 -15 63 -35c34 -45 45 -106 45 -188c9 -143 0 -152 9 -174c17 -38 49 -21 60 0c5 4 2 43 2 78
c1 69 0 153 -11 213c-10 53 -39 91 -62 126zM82 519c-4 40 -9 145 -4 149c-5 14 113 -8 133 -36c16 -18 3 -85 -10 -99c-22 -24 -119 -28 -119 -14z" />
    <glyph glyph-name="S" unicode="S" horiz-adv-x="220" 
d="M4 114c-6 -14 -2 -28 2 -40c8 -23 46 -57 61 -64c47 -23 101 -3 119 36c8 16 12 45 9 75c-5 67 -18 148 -28 223c-10 79 -32 149 -45 209c-5 20 -23 106 -5 121c31 26 11 -19 58 -34c9 -3 16 4 29 11c9 11 3 25 -2 39c-15 43 -48 70 -102 63c-64 -10 -88 -83 -66 -150
c17 -51 68 -334 75 -382c7 -49 21 -102 4 -145c-19 -22 -36 61 -63 61c-22 0 -33 -12 -46 -23z" />
    <glyph glyph-name="T" unicode="T" horiz-adv-x="271" 
d="M260 663c17 0 16 65 -28 72c-44 2 -228 21 -232 -36c-1 -19 21 -37 38 -42c20 -5 66 14 66 -4c-8 -125 -13 -273 -13 -417c0 -27 4 -57 2 -89c-2 -54 -9 -126 27 -142c61 -28 44 68 46 115c11 181 -8 389 14 539c0 16 57 -7 80 4z" />
    <glyph glyph-name="U" unicode="U" horiz-adv-x="269" 
d="M17 743c-5 -8 -6 -18 -6 -27c5 -72 -5 -135 -3 -211c1 -46 -1 -94 -2 -140c-3 -65 -5 -129 0 -187c1 -21 3 -51 8 -68c2 -7 5 -23 13 -34c29 -72 118 -110 175 -47c23 26 34 66 42 108c21 110 13 278 13 408c0 69 0 137 -7 184c-3 10 -50 32 -61 13
c-21 -38 -12 -402 -12 -450c0 -105 4 -196 -40 -214c-12 -4 -28 0 -38 19c-40 74 -17 204 -17 308c0 118 -2 233 -10 329c0 24 -44 26 -55 9z" />
    <glyph glyph-name="V" unicode="V" horiz-adv-x="250" 
d="M237 719c-8 18 -31 17 -42 15c-21 -8 -29 -88 -30 -123c-3 -35 -5 -68 -9 -104c-1 -16 -26 -215 -34 -230c-5 27 -11 94 -16 121c-8 44 -11 81 -18 125c-12 64 -11 200 -39 214c-12 5 -14 5 -31 2c-40 0 13 -335 21 -383c10 -53 16 -101 21 -155c7 -71 13 -196 54 -196
c11 -5 28 0 38 5c16 7 23 57 23 80c0 90 14 135 24 216c7 62 18 121 26 188c9 73 18 206 12 225z" />
    <glyph glyph-name="W" unicode="W" horiz-adv-x="417" 
d="M367 756c-7 -6 -17 -24 -17 -32c-9 -117 -21 -301 -32 -423c-19 134 -34 229 -58 338c-7 30 -12 87 -31 97c-13 7 -17 -1 -27 -12c-18 -19 -40 -160 -47 -245c-6 -68 -12 -102 -20 -200c-29 182 -49 335 -87 462c-9 19 -26 29 -36 13c-19 -17 -11 -81 -8 -113
c1 -7 96 -529 112 -618c17 -23 44 1 60 10c14 49 13 85 18 127c11 98 13 206 29 294c20 -99 37 -242 61 -353c5 -29 12 -94 33 -99c9 -3 17 -1 25 0c6 1 14 0 21 9c31 166 25 374 40 552c4 62 13 122 5 178c-11 8 -25 12 -41 15z" />
    <glyph glyph-name="X" unicode="X" horiz-adv-x="334" 
d="M169 509c-23 50 -50 121 -73 177c-6 14 -11 51 -28 59c-25 15 -48 -10 -48 -29c-2 -22 13 -60 21 -83c18 -44 88 -214 87 -228c0 -3 -82 -261 -101 -307c-10 -23 -34 -49 -16 -69c4 -4 4 -8 12 -17c0 -7 9 -5 19 -2c51 26 59 94 81 151c7 20 15 39 22 59
c6 19 23 50 23 76c21 -53 33 -134 49 -193c12 -39 21 -85 52 -104c20 -8 32 8 45 6c14 24 2 46 -8 73c-17 47 -98 327 -98 332c3 29 116 290 101 320c-4 9 -9 20 -17 24c-17 10 -25 13 -40 -8c-39 -68 -55 -159 -83 -237z" />
    <glyph glyph-name="Y" unicode="Y" horiz-adv-x="250" 
d="M243 727c-23 21 -49 3 -61 -17c-17 -30 -17 -83 -29 -109c-29 22 -61 92 -92 111c-22 14 -52 1 -54 -23c-1 -12 16 -34 26 -49c34 -47 67 -87 98 -131c-30 -122 -67 -246 -96 -367c-10 -41 -35 -122 -19 -129c15 -13 25 -10 49 -8c19 8 20 51 27 77c20 86 46 166 65 252
c29 127 103 383 86 393z" />
    <glyph glyph-name="Z" unicode="Z" horiz-adv-x="318" 
d="M305 748c-34 13 -66 -1 -102 -5c-50 -4 -107 14 -140 -15c0 -12 2 -15 6 -27c9 -39 103 -19 153 -27c-69 -207 -129 -360 -199 -566c-11 -12 -19 -58 -18 -74c2 -24 15 -25 42 -26c73 18 156 -15 202 14c16 11 33 14 30 38c-39 32 -129 17 -181 22
c48 157 110 318 161 475c7 22 16 51 26 80c13 39 31 77 20 111z" />
    <glyph glyph-name="a" unicode="a" horiz-adv-x="301" 
d="M163 727c-41 28 -57 -75 -66 -125c-5 -25 -60 -253 -64 -291c-7 -60 -24 -125 -27 -181c-3 -41 -13 -88 9 -122c8 -10 31 -10 47 -3c14 0 15 97 21 148s15 103 27 144c18 2 46 -2 61 4c15 -44 22 -103 37 -171c16 -72 16 -152 84 -110c9 28 -10 101 -25 161
c-38 154 -53 316 -79 462c-5 30 -10 74 -25 84zM134 454c1 5 6 28 8 27c9 -4 14 -80 14 -102c-18 -10 -21 -3 -37 -3c5 27 8 46 15 78z" />
    <glyph glyph-name="aacute" unicode="&#xe1;" horiz-adv-x="301" 
d="M163 727c-41 28 -57 -75 -66 -125c-5 -25 -60 -253 -64 -291c-7 -60 -24 -125 -27 -181c-3 -41 -13 -88 9 -122c8 -10 31 -10 47 -3c14 0 15 97 21 148s15 103 27 144c18 2 46 -2 61 4c15 -44 22 -103 37 -171c16 -72 16 -152 84 -110c9 28 -10 101 -25 161
c-38 154 -53 316 -79 462c-5 30 -10 74 -25 84zM134 454c1 5 6 28 8 27c9 -4 14 -80 14 -102c-18 -10 -21 -3 -37 -3c5 27 8 46 15 78zM147 767c11 -4 11 -4 25 7c11 8 24 16 35 26c6 7 12 13 61 66c11 16 9 30 -1 46c-9 14 -14 4 -23 15c-13 20 -151 -143 -97 -160z" />
    <glyph glyph-name="agrave" unicode="&#xe0;" horiz-adv-x="301" 
d="M163 727c-41 28 -57 -75 -66 -125c-5 -25 -60 -253 -64 -291c-7 -60 -24 -125 -27 -181c-3 -41 -13 -88 9 -122c8 -10 31 -10 47 -3c14 0 15 97 21 148s15 103 27 144c18 2 46 -2 61 4c15 -44 22 -103 37 -171c16 -72 16 -152 84 -110c9 28 -10 101 -25 161
c-38 154 -53 316 -79 462c-5 30 -10 74 -25 84zM134 454c1 5 6 28 8 27c9 -4 14 -80 14 -102c-18 -10 -21 -3 -37 -3c5 27 8 46 15 78zM177 771c6 10 6 10 -2 25c-6 12 -12 27 -20 39c-6 7 -10 14 -55 71c-14 14 -28 14 -46 7c-15 -7 -5 -14 -19 -21
c-21 -9 117 -172 142 -121z" />
    <glyph glyph-name="b" unicode="b" horiz-adv-x="258" 
d="M173 486c57 40 89 116 57 188c-9 20 -28 39 -42 52c-26 22 -69 34 -109 29c-36 -5 -68 -14 -73 -55c-5 -51 6 -111 7 -170c1 -61 3 -109 4 -159c3 -82 3 -177 10 -254c1 -48 2 -83 24 -99s83 -27 114 -12c53 22 68 89 78 160c8 76 -3 140 -22 208c-11 47 -31 83 -48 112z
M92 456c47 -6 67 -55 79 -116c14 -80 13 -146 0 -218c-4 -23 -35 -69 -61 -61c-19 8 -14 58 -15 90c-3 102 -4 199 -8 299c0 3 2 5 5 6zM87 532c-1 56 -10 116 -8 168c49 9 90 -20 97 -61c12 -61 -29 -111 -89 -107z" />
    <glyph glyph-name="c" unicode="c" horiz-adv-x="252" 
d="M106 733c-43 -7 -79 -53 -90 -90c-17 -56 -13 -171 -11 -267c1 -60 6 -131 8 -177c5 -64 10 -121 32 -157c38 -65 139 -64 181 -4c5 8 21 25 19 40c0 5 -14 32 -33 26c-50 -16 -1 -43 -66 -55c-41 -8 -51 88 -55 126c-13 112 -12 229 -9 353c1 43 -1 143 51 128
c28 -8 28 -16 44 -52c9 -20 63 -1 47 45c-7 22 -21 53 -40 64c-19 13 -65 22 -78 20z" />
    <glyph glyph-name="d" unicode="d" horiz-adv-x="303" 
d="M50 0c188 0 242 244 240 432c-3 149 -18 247 -133 304c-68 21 -129 10 -133 -19c-28 0 -29 -697 -5 -712c15 -5 15 -5 31 -5zM86 85c-13 0 -21 588 7 601c48 0 78 -36 95 -74c59 -130 36 -397 -45 -488c-15 -16 -39 -35 -57 -39z" />
    <glyph glyph-name="e" unicode="e" horiz-adv-x="251" 
d="M80 651c40 27 96 -2 120 38c15 26 -7 47 -43 41c-30 -5 -96 -10 -119 -22c-27 -14 -31 -43 -27 -89c4 -40 9 -85 11 -131c4 -99 24 -403 27 -438c0 -8 1 -51 31 -51c43 3 88 7 133 12c13 0 28 39 14 47c-26 13 -70 12 -103 3c-13 89 -12 184 -22 276c20 7 37 11 40 31
c5 27 -20 32 -47 37c1 82 -16 166 -15 246z" />
    <glyph glyph-name="eacute" unicode="&#xe9;" horiz-adv-x="251" 
d="M80 651c40 27 96 -2 120 38c15 26 -7 47 -43 41c-30 -5 -96 -10 -119 -22c-27 -14 -31 -43 -27 -89c4 -40 9 -85 11 -131c4 -99 24 -403 27 -438c0 -8 1 -51 31 -51c43 3 88 7 133 12c13 0 28 39 14 47c-26 13 -70 12 -103 3c-13 89 -12 184 -22 276c20 7 37 11 40 31
c5 27 -20 32 -47 37c1 82 -16 166 -15 246zM96 762c11 -4 11 -4 25 7c11 8 24 16 35 26c6 7 12 13 61 66c11 16 9 30 -1 46c-9 14 -14 4 -23 15c-13 20 -151 -143 -97 -160z" />
    <glyph glyph-name="egrave" unicode="&#xe8;" horiz-adv-x="251" 
d="M80 651c40 27 96 -2 120 38c15 26 -7 47 -43 41c-30 -5 -96 -10 -119 -22c-27 -14 -31 -43 -27 -89c4 -40 9 -85 11 -131c4 -99 24 -403 27 -438c0 -8 1 -51 31 -51c43 3 88 7 133 12c13 0 28 39 14 47c-26 13 -70 12 -103 3c-13 89 -12 184 -22 276c20 7 37 11 40 31
c5 27 -20 32 -47 37c1 82 -16 166 -15 246zM141 763c6 10 6 10 -2 25c-6 12 -12 27 -20 39c-6 7 -10 14 -55 71c-14 14 -28 14 -46 7c-15 -7 -5 -14 -19 -21c-21 -9 117 -172 142 -121z" />
    <glyph glyph-name="f" unicode="f" horiz-adv-x="236" 
d="M226 712c-5 42 -89 21 -132 12c-20 -4 -35 0 -57 -1c-41 -12 -21 -66 -17 -124c31 -544 21 -633 99 -587c22 13 9 82 7 129c-5 114 -27 235 -25 340c14 5 52 2 48 43c-8 21 -40 22 -56 22c-3 38 -11 74 -6 113c37 7 145 2 139 53z" />
    <glyph glyph-name="g" unicode="g" horiz-adv-x="255" 
d="M207 595c-5 1 -8 0 -9 -2c-1 -6 4 -6 9 -6v8zM169 329c16 0 8 -102 3 -156c-3 -33 -6 -73 -26 -97c-18 -22 -39 -9 -43 6c-20 60 -26 138 -27 209c-1 47 3 89 1 139c-2 43 -5 92 0 144c4 36 16 103 44 105c30 2 37 -47 58 -50c16 -1 26 19 28 28c8 44 -47 100 -91 89
c-127 -32 -109 -161 -103 -455c5 -94 8 -234 52 -268c8 -17 56 -24 80 -16c30 8 55 46 66 77c26 77 20 203 21 279c5 27 -118 41 -118 20c-4 -9 -3 -24 -5 -33c0 -17 60 -6 60 -21z" />
    <glyph glyph-name="h" unicode="h" horiz-adv-x="250" 
d="M194 742c-19 0 -20 -12 -26 -26c-15 -39 8 -263 -4 -278c-1 -1 -82 -10 -82 -2c-13 13 8 281 -18 293c-28 11 -42 -12 -45 -29c-4 -24 -1 -67 -1 -100c0 -134 -1 -261 -1 -397c0 -79 -13 -203 19 -202c14 -1 30 -7 37 6c14 25 9 75 7 108c-4 75 -5 245 4 245
c18 4 75 11 80 2c5 -73 9 -180 8 -283c0 -25 -2 -48 9 -70c15 -11 21 -9 35 -5c11 6 19 21 19 38c-1 227 -8 474 -17 690c0 10 -12 10 -24 10z" />
    <glyph glyph-name="i" unicode="i" horiz-adv-x="130" 
d="M93 30c-8 147 14 314 8 460c-2 58 5 132 -6 195c-3 23 -13 50 -34 40c-38 -15 -26 -62 -27 -115c0 -141 -7 -351 -9 -499c-1 -38 -3 -79 19 -101c5 -6 19 -13 37 -4c2 1 12 -1 12 24z" />
    <glyph glyph-name="iacute" unicode="&#xed;" horiz-adv-x="130" 
d="M93 30c-8 147 14 314 8 460c-2 58 5 132 -6 195c-3 23 -13 50 -34 40c-38 -15 -26 -62 -27 -115c0 -141 -7 -351 -9 -499c-1 -38 -3 -79 19 -101c5 -6 19 -13 37 -4c2 1 12 -1 12 24zM56 756c11 -4 11 -4 25 7c11 8 24 16 35 26c6 7 12 13 61 66c11 16 9 30 -1 46
c-9 14 -14 4 -23 15c-13 20 -151 -143 -97 -160z" />
    <glyph glyph-name="j" unicode="j" horiz-adv-x="232" 
d="M204 736c-9 1 -24 5 -31 0c-26 0 -22 -238 -31 -371c-2 -53 0 -283 -32 -288c-24 -4 -43 39 -43 59c0 49 -56 51 -60 20c-4 -34 12 -78 20 -92c16 -26 40 -52 70 -56c94 -13 101 108 104 185c5 126 7 287 13 416c3 48 13 127 -10 127z" />
    <glyph glyph-name="k" unicode="k" 
d="M116 443c52 91 62 121 104 210c6 11 29 53 22 72c-6 20 -39 8 -49 0c-40 -35 -60 -137 -99 -166c-3 52 -2 117 -7 166c-24 21 -49 0 -55 -23c-4 -13 -3 -28 -2 -46c5 -190 -27 -452 -20 -649c0 -20 66 -20 66 4c0 133 -8 229 11 342c39 -95 72 -187 100 -288
c6 -20 6 -33 30 -48c13 -10 45 -4 50 17c9 36 -24 112 -28 122c-62 168 -71 195 -123 287z" />
    <glyph glyph-name="l" unicode="l" horiz-adv-x="240" 
d="M82 87c-13 178 14 365 0 548c-2 41 -5 126 -54 100c-27 -5 -10 -101 -10 -160c0 -101 2 -207 -5 -303c-1 -59 -21 -257 25 -257c17 0 105 -13 162 -10c19 0 29 20 24 49c-8 25 -145 13 -142 33z" />
    <glyph glyph-name="m" unicode="m" horiz-adv-x="294" 
d="M69 746c-61 11 -45 -38 -46 -83c-3 -115 -1 -263 -9 -402c-2 -33 2 -67 2 -100c1 -56 -6 -105 7 -146c5 -11 18 -14 31 -8c22 9 17 51 19 82c3 55 -1 121 2 188c3 63 5 127 5 180c0 34 2 56 2 101c5 -4 5 -4 11 -19c4 -13 31 -77 52 -81c9 -3 10 -7 34 30
c34 61 34 65 44 71c-7 -113 -11 -354 -11 -461c0 -27 -6 -70 1 -84c5 -9 19 -16 32 -12c15 3 27 10 27 31c1 194 4 423 10 613c1 28 9 74 0 80c-8 12 -27 15 -41 7c-5 -3 -7 -9 -14 -20c-11 -20 -67 -155 -79 -155c-8 0 -17 34 -24 50c-2 7 -8 24 -11 31
c-7 19 -26 107 -44 107z" />
    <glyph glyph-name="n" unicode="n" 
d="M98 723c-25 38 -55 29 -65 13c-12 -47 -10 -103 -10 -155c0 -116 -11 -283 -8 -401c0 -22 1 -52 0 -80c-1 -42 -11 -94 22 -96c51 -3 45 86 45 147c0 22 3 318 3 336c10 -23 8 -35 13 -54c1 -3 54 -236 54 -265c0 -23 13 -97 15 -114c8 -63 49 -65 54 -40
c22 125 10 277 19 425c5 81 -4 171 -2 241c0 24 1 58 -31 52c-27 10 -38 -32 -37 -70l10 -330c-8 53 -67 352 -82 391z" />
    <glyph glyph-name="o" unicode="o" horiz-adv-x="247" 
d="M226 435c0 49 -2 110 -2 155c0 22 -13 89 -18 97c-25 37 -60 57 -122 46c-22 -4 -44 -27 -55 -46c-20 -36 -19 -95 -19 -156c0 -41 3 -84 0 -125c-4 -88 -2 -175 -7 -245c-1 -14 1 -40 3 -55c2 -23 12 -39 22 -55c17 -29 52 -54 99 -49c21 2 49 25 61 44
c17 26 23 72 25 119c1 49 7 93 9 133c4 46 5 91 4 137zM150 654c11 -24 13 -41 15 -62c3 -33 1 -317 -13 -390c-7 -36 7 -129 -33 -129c-79 1 -54 89 -54 167c0 82 5 185 1 274c-2 72 -10 136 37 155c19 9 41 -5 47 -15z" />
    <glyph glyph-name="oacute" unicode="&#xf3;" horiz-adv-x="247" 
d="M226 435c0 49 -2 110 -2 155c0 22 -13 89 -18 97c-25 37 -60 57 -122 46c-22 -4 -44 -27 -55 -46c-20 -36 -19 -95 -19 -156c0 -41 3 -84 0 -125c-4 -88 -2 -175 -7 -245c-1 -14 1 -40 3 -55c2 -23 12 -39 22 -55c17 -29 52 -54 99 -49c21 2 49 25 61 44
c17 26 23 72 25 119c1 49 7 93 9 133c4 46 5 91 4 137zM150 654c11 -24 13 -41 15 -62c3 -33 1 -317 -13 -390c-7 -36 7 -129 -33 -129c-79 1 -54 89 -54 167c0 82 5 185 1 274c-2 72 -10 136 37 155c19 9 41 -5 47 -15zM111 769c11 -4 11 -4 25 7c11 8 24 16 35 26
c6 7 12 13 61 66c11 16 9 30 -1 46c-9 14 -14 4 -23 15c-13 20 -151 -143 -97 -160z" />
    <glyph glyph-name="ograve" unicode="&#xf2;" horiz-adv-x="247" 
d="M226 435c0 49 -2 110 -2 155c0 22 -13 89 -18 97c-25 37 -60 57 -122 46c-22 -4 -44 -27 -55 -46c-20 -36 -19 -95 -19 -156c0 -41 3 -84 0 -125c-4 -88 -2 -175 -7 -245c-1 -14 1 -40 3 -55c2 -23 12 -39 22 -55c17 -29 52 -54 99 -49c21 2 49 25 61 44
c17 26 23 72 25 119c1 49 7 93 9 133c4 46 5 91 4 137zM150 654c11 -24 13 -41 15 -62c3 -33 1 -317 -13 -390c-7 -36 7 -129 -33 -129c-79 1 -54 89 -54 167c0 82 5 185 1 274c-2 72 -10 136 37 155c19 9 41 -5 47 -15zM142 774c6 10 6 10 -2 25c-6 12 -12 27 -20 39
c-6 7 -10 14 -55 71c-14 14 -28 14 -46 7c-15 -7 -5 -14 -19 -21c-21 -9 117 -172 142 -121z" />
    <glyph glyph-name="p" unicode="p" 
d="M95 500c0 14 97 3 124 32c33 35 43 69 39 121c-2 23 -6 67 -27 82c-47 34 -192 38 -212 27c-18 -4 -11 -92 -11 -131c0 -68 4 -404 0 -587c2 -22 3 -44 23 -48c61 -21 43 77 48 129c11 123 3 375 16 375zM76 579c-4 40 -9 117 -4 121c-5 14 106 17 126 -11
c16 -18 10 -87 -3 -101c-22 -24 -119 -23 -119 -9z" />
    <glyph glyph-name="q" unicode="q" horiz-adv-x="417" 
d="M241 142c-25 -16 -21 15 -44 22c-7 2 -14 4 -20 0c-19 -9 23 -93 15 -93c-69 0 -77 86 -90 159c-12 76 -26 192 -20 284c3 44 13 98 29 122c19 28 59 44 87 18c39 -33 57 -125 57 -192c0 -115 14 -238 -14 -320zM246 708c-24 19 -56 31 -92 31c-29 0 -53 -13 -72 -26
c-111 -79 -83 -350 -66 -444c16 -87 17 -146 52 -196c35 -49 79 -72 141 -59c12 3 22 11 32 12c29 -24 67 -33 107 -7c19 11 36 33 46 52c13 26 1 77 -44 75c-37 -3 3 -67 -32 -73c-14 -2 -20 -3 -32 12c18 35 22 75 32 123c7 28 10 62 11 92c4 85 1 159 -9 230
c-11 75 -48 155 -74 178z" />
    <glyph glyph-name="r" unicode="r" horiz-adv-x="305" 
d="M192 443c13 11 40 24 55 46c42 40 58 120 18 185c-47 75 -225 73 -237 56c-30 7 -14 -173 -14 -267c0 -142 -13 -291 -9 -441c22 -44 76 -22 76 66c0 103 7 227 5 335c34 5 49 -15 63 -35c34 -45 45 -106 45 -188c9 -143 0 -152 9 -174c17 -38 49 -21 60 0c5 4 2 43 2 78
c1 69 0 153 -11 213c-10 53 -39 91 -62 126zM82 519c-4 40 -9 145 -4 149c-5 14 113 -8 133 -36c16 -18 3 -85 -10 -99c-22 -24 -119 -28 -119 -14z" />
    <glyph glyph-name="s" unicode="s" horiz-adv-x="220" 
d="M4 114c-6 -14 -2 -28 2 -40c8 -23 46 -57 61 -64c47 -23 101 -3 119 36c8 16 12 45 9 75c-5 67 -18 148 -28 223c-10 79 -32 149 -45 209c-5 20 -23 106 -5 121c31 26 11 -19 58 -34c9 -3 16 4 29 11c9 11 3 25 -2 39c-15 43 -48 70 -102 63c-64 -10 -88 -83 -66 -150
c17 -51 68 -334 75 -382c7 -49 21 -102 4 -145c-19 -22 -36 61 -63 61c-22 0 -33 -12 -46 -23z" />
    <glyph glyph-name="t" unicode="t" horiz-adv-x="271" 
d="M260 663c17 0 16 65 -28 72c-44 2 -228 21 -232 -36c-1 -19 21 -37 38 -42c20 -5 66 14 66 -4c-8 -125 -13 -273 -13 -417c0 -27 4 -57 2 -89c-2 -54 -9 -126 27 -142c61 -28 44 68 46 115c11 181 -8 389 14 539c0 16 57 -7 80 4z" />
    <glyph glyph-name="u" unicode="u" horiz-adv-x="265" 
d="M17 743c-5 -8 -6 -18 -6 -27c5 -72 -5 -135 -3 -211c1 -46 -1 -94 -2 -140c-3 -65 -5 -129 0 -187c1 -21 3 -51 8 -68c2 -7 5 -23 13 -34c29 -72 118 -110 175 -47c23 26 34 66 42 108c21 110 13 278 13 408c0 69 0 137 -7 184c-3 10 -50 32 -61 13
c-21 -38 -12 -402 -12 -450c0 -105 4 -196 -40 -214c-12 -4 -28 0 -38 19c-40 74 -17 204 -17 308c0 118 -2 233 -10 329c0 24 -44 26 -55 9z" />
    <glyph glyph-name="uacute" unicode="&#xfa;" horiz-adv-x="265" 
d="M17 743c-5 -8 -6 -18 -6 -27c5 -72 -5 -135 -3 -211c1 -46 -1 -94 -2 -140c-3 -65 -5 -129 0 -187c1 -21 3 -51 8 -68c2 -7 5 -23 13 -34c29 -72 118 -110 175 -47c23 26 34 66 42 108c21 110 13 278 13 408c0 69 0 137 -7 184c-3 10 -50 32 -61 13
c-21 -38 -12 -402 -12 -450c0 -105 4 -196 -40 -214c-12 -4 -28 0 -38 19c-40 74 -17 204 -17 308c0 118 -2 233 -10 329c0 24 -44 26 -55 9zM124 797c11 -4 11 -4 25 7c11 8 24 16 35 26c6 7 12 13 61 66c11 16 9 30 -1 46c-9 14 -14 4 -23 15c-13 20 -151 -143 -97 -160z
" />
    <glyph glyph-name="udieresis" unicode="&#xfc;" horiz-adv-x="265" 
d="M17 743c-5 -8 -6 -18 -6 -27c5 -72 -5 -135 -3 -211c1 -46 -1 -94 -2 -140c-3 -65 -5 -129 0 -187c1 -21 3 -51 8 -68c2 -7 5 -23 13 -34c29 -72 118 -110 175 -47c23 26 34 66 42 108c21 110 13 278 13 408c0 69 0 137 -7 184c-3 10 -50 32 -61 13
c-21 -38 -12 -402 -12 -450c0 -105 4 -196 -40 -214c-12 -4 -28 0 -38 19c-40 74 -17 204 -17 308c0 118 -2 233 -10 329c0 24 -44 26 -55 9zM284 853c-2 6 -2 14 -6 19c-12 19 -31 30 -53 31c-11 0 -23 -2 -33 -10c-13 -18 -18 -57 15 -70c17 -9 34 -9 51 -4
c16 4 24 16 26 34zM284 853c-2 6 -2 14 -6 19c-12 19 -31 30 -53 31c-11 0 -23 -2 -33 -10c-13 -18 -18 -57 15 -70c17 -9 34 -9 51 -4c16 4 24 16 26 34zM284 853c-2 6 -2 14 -6 19c-12 19 -31 30 -53 31c-11 0 -23 -2 -33 -10c-13 -18 -18 -57 15 -70c17 -9 34 -9 51 -4
c16 4 24 16 26 34zM94 863c-2 6 -2 14 -6 19c-12 19 -31 30 -53 31c-11 0 -23 -2 -33 -10c-13 -18 -18 -57 15 -70c17 -9 34 -9 51 -4c16 4 24 16 26 34zM94 863c-2 6 -2 14 -6 19c-12 19 -31 30 -53 31c-11 0 -23 -2 -33 -10c-13 -18 -18 -57 15 -70c17 -9 34 -9 51 -4
c16 4 24 16 26 34zM94 863c-2 6 -2 14 -6 19c-12 19 -31 30 -53 31c-11 0 -23 -2 -33 -10c-13 -18 -18 -57 15 -70c17 -9 34 -9 51 -4c16 4 24 16 26 34z" />
    <glyph glyph-name="ugrave" unicode="&#xf9;" horiz-adv-x="265" 
d="M17 743c-5 -8 -6 -18 -6 -27c5 -72 -5 -135 -3 -211c1 -46 -1 -94 -2 -140c-3 -65 -5 -129 0 -187c1 -21 3 -51 8 -68c2 -7 5 -23 13 -34c29 -72 118 -110 175 -47c23 26 34 66 42 108c21 110 13 278 13 408c0 69 0 137 -7 184c-3 10 -50 32 -61 13
c-21 -38 -12 -402 -12 -450c0 -105 4 -196 -40 -214c-12 -4 -28 0 -38 19c-40 74 -17 204 -17 308c0 118 -2 233 -10 329c0 24 -44 26 -55 9zM150 799c6 10 6 10 -2 25c-6 12 -12 27 -20 39c-6 7 -10 14 -55 71c-14 14 -28 14 -46 7c-15 -7 -5 -14 -19 -21
c-21 -9 117 -172 142 -121z" />
    <glyph glyph-name="v" unicode="v" horiz-adv-x="250" 
d="M237 719c-8 18 -31 17 -42 15c-21 -8 -29 -88 -30 -123c-3 -35 -5 -68 -9 -104c-1 -16 -26 -215 -34 -230c-5 27 -11 94 -16 121c-8 44 -11 81 -18 125c-12 64 -11 200 -39 214c-12 5 -14 5 -31 2c-40 0 13 -335 21 -383c10 -53 16 -101 21 -155c7 -71 13 -196 54 -196
c11 -5 28 0 38 5c16 7 23 57 23 80c0 90 14 135 24 216c7 62 18 121 26 188c9 73 18 206 12 225z" />
    <glyph glyph-name="w" unicode="w" horiz-adv-x="417" 
d="M367 756c-7 -6 -17 -24 -17 -32c-9 -117 -21 -301 -32 -423c-19 134 -34 229 -58 338c-7 30 -12 87 -31 97c-13 7 -17 -1 -27 -12c-18 -19 -40 -160 -47 -245c-6 -68 -12 -102 -20 -200c-29 182 -49 335 -87 462c-9 19 -26 29 -36 13c-19 -17 -11 -81 -8 -113
c1 -7 96 -529 112 -618c17 -23 44 1 60 10c14 49 13 85 18 127c11 98 13 206 29 294c20 -99 37 -242 61 -353c5 -29 12 -94 33 -99c9 -3 17 -1 25 0c6 1 14 0 21 9c31 166 25 374 40 552c4 62 13 122 5 178c-11 8 -25 12 -41 15z" />
    <glyph glyph-name="x" unicode="x" horiz-adv-x="334" 
d="M169 509c-23 50 -50 121 -73 177c-6 14 -11 51 -28 59c-25 15 -48 -10 -48 -29c-2 -22 13 -60 21 -83c18 -44 88 -214 87 -228c0 -3 -82 -261 -101 -307c-10 -23 -34 -49 -16 -69c4 -4 4 -8 12 -17c0 -7 9 -5 19 -2c51 26 59 94 81 151c7 20 15 39 22 59
c6 19 23 50 23 76c21 -53 33 -134 49 -193c12 -39 21 -85 52 -104c20 -8 32 8 45 6c14 24 2 46 -8 73c-17 47 -98 327 -98 332c3 29 116 290 101 320c-4 9 -9 20 -17 24c-17 10 -25 13 -40 -8c-39 -68 -55 -159 -83 -237z" />
    <glyph glyph-name="y" unicode="y" horiz-adv-x="250" 
d="M243 727c-23 21 -49 3 -61 -17c-17 -30 -17 -83 -29 -109c-29 22 -61 92 -92 111c-22 14 -52 1 -54 -23c-1 -12 16 -34 26 -49c34 -47 67 -87 98 -131c-30 -122 -67 -246 -96 -367c-10 -41 -35 -122 -19 -129c15 -13 25 -10 49 -8c19 8 20 51 27 77c20 86 46 166 65 252
c29 127 103 383 86 393z" />
    <glyph glyph-name="z" unicode="z" horiz-adv-x="318" 
d="M305 748c-34 13 -66 -1 -102 -5c-50 -4 -107 14 -140 -15c0 -12 2 -15 6 -27c9 -39 103 -19 153 -27c-69 -207 -129 -360 -199 -566c-11 -12 -19 -58 -18 -74c2 -24 15 -25 42 -26c73 18 156 -15 202 14c16 11 33 14 30 38c-39 32 -129 17 -181 22
c48 157 110 318 161 475c7 22 16 51 26 80c13 39 31 77 20 111z" />
    <glyph glyph-name="zero" unicode="0" 
d="M121 759c-112 -8 -105 -118 -109 -161c-6 -75 -8 -167 -8 -253c-1 -121 28 -240 39 -265c19 -46 76 -102 140 -71c54 25 57 94 63 168c4 56 13 120 11 178c-4 127 -2 272 -50 357c-20 31 -41 50 -86 47zM127 665c43 4 76 -203 53 -457c-12 -137 -40 -128 -46 -129
c-11 0 -57 53 -59 238c-4 341 31 346 52 348z" />
    <glyph glyph-name="one" unicode="1" horiz-adv-x="215" 
d="M115 656c5 -111 9 -309 6 -421c-2 -76 2 -119 4 -167c3 -81 43 -89 59 -47c30 78 0 585 -6 679c-4 59 -52 68 -90 39c-21 -17 -43 -67 -60 -98c-18 -34 -39 -141 12 -120c34 14 55 125 75 135z" />
    <glyph glyph-name="two" unicode="2" horiz-adv-x="344" 
d="M134 98c27 94 53 181 80 276c9 31 25 65 32 99c13 60 36 125 32 190c-4 55 -44 107 -109 97c-46 -6 -113 -71 -128 -118c-13 -37 -33 -105 11 -121c79 -31 -19 145 138 145c32 0 8 -74 4 -92c-53 -228 -133 -430 -138 -438c-19 -32 -71 -61 -48 -102
c21 -39 68 -16 110 -16c57 -1 110 -27 159 -15c20 5 49 15 54 32c17 57 -49 42 -95 45c-38 2 -102 1 -102 18z" />
    <glyph glyph-name="three" unicode="3" horiz-adv-x="314" 
d="M140 774c-81 -12 -118 -65 -138 -139c-3 -9 -10 -19 -10 -29c-1 -19 10 -43 24 -51c50 -29 53 46 66 75c14 28 43 61 69 61c30 0 49 -20 55 -38c10 -39 -8 -109 -19 -139c-10 -29 -40 -63 -63 -78c-18 -11 -49 -20 -59 -38c-17 -36 12 -66 33 -74c33 -13 81 17 102 1
c13 -9 19 -44 21 -65c4 -27 5 -57 3 -81c-3 -29 -13 -79 -33 -88c-55 -22 -57 1 -94 32c-22 19 -57 9 -62 -37c-1 -10 4 -30 13 -37c27 -25 81 -46 127 -43c34 3 70 20 87 36c20 22 35 59 40 92c15 86 -2 173 -32 227c-7 15 -42 33 -42 53c0 22 35 51 41 77
c6 28 17 58 19 87c6 70 -1 112 -36 147c-25 26 -59 56 -112 49z" />
    <glyph glyph-name="four" unicode="4" horiz-adv-x="290" 
d="M151 496c9 -138 5 -274 9 -405c2 -48 -5 -88 41 -91c49 -3 43 20 42 63c0 78 -12 224 -9 271c4 57 2 110 7 160c4 49 19 121 -2 164c-14 29 -41 31 -61 7c-13 -15 0 -60 -19 -85c-12 -16 -59 -13 -70 12c-9 20 -7 31 -7 58c0 58 57 147 -19 134c-55 -9 -53 -67 -59 -128
c-4 -44 2 -99 35 -121c40 -26 56 -25 112 -39z" />
    <glyph glyph-name="five" unicode="5" horiz-adv-x="330" 
d="M181 770c-110 -18 -162 22 -175 -40c-4 -25 2 -45 1 -71c-3 -42 1 -62 1 -97c0 -95 127 -13 167 -51c26 -25 56 -25 75 -190c6 -55 7 -97 -17 -164c-4 -11 -34 -61 -86 -61c-36 0 -45 21 -52 30c-61 75 -100 -14 -66 -70c38 -61 154 -63 207 -21c32 26 59 67 71 113
c18 64 21 111 9 192c-13 103 -26 219 -106 250c-41 15 -110 -16 -120 2c-6 11 -9 72 -4 83c11 19 50 -4 134 19c14 4 34 18 40 29c25 50 -42 48 -79 47z" />
    <glyph glyph-name="six" unicode="6" horiz-adv-x="350" 
d="M259 772c-166 -18 -223 -252 -235 -424c-2 -30 -9 -70 -10 -95c-8 -136 37 -215 140 -241c103 -25 167 54 161 149c-1 29 -23 67 -39 84c-26 29 -43 52 -88 60c-62 11 -85 -50 -90 -44c-6 6 0 56 0 64c11 138 42 279 100 337c23 23 42 38 75 38c51 0 75 -14 66 34
c-5 28 -58 40 -80 38zM178 72c-34 0 -62 37 -62 77s28 85 62 85s70 -62 70 -102s-36 -60 -70 -60z" />
    <glyph glyph-name="seven" unicode="7" horiz-adv-x="304" 
d="M176 700c15 -41 5 -78 -13 -100c-13 -15 -95 8 -115 -1c-15 -7 -12 -20 -15 -36c-9 -38 25 -32 50 -37c12 -3 53 -3 54 -16c3 -40 -26 -149 -40 -198c-5 -15 -62 -245 -66 -258c-16 -47 9 -54 45 -47c55 10 68 136 79 176l67 290c19 62 48 21 51 46c2 12 9 29 6 38
s-24 14 -22 28c7 51 16 104 28 159c16 73 -261 38 -267 -4c-8 -61 115 -29 158 -40z" />
    <glyph glyph-name="eight" unicode="8" horiz-adv-x="260" 
d="M270 587c-1 -4 0 -10 7 -9c-1 3 0 8 -2 9h-5zM115 761c-44 -4 -76 -20 -89 -61c-20 -62 -34 -109 30 -245c10 -20 14 -44 13 -73c-6 -92 -59 -168 -60 -267c-1 -84 85 -133 170 -109c20 6 49 31 55 52c24 79 -1 158 -19 222c-7 27 -14 54 -20 75c-3 9 -10 17 -10 27
c-2 40 24 67 35 103c9 27 16 65 21 98c12 77 -20 137 -68 165c-14 8 -42 15 -58 13zM108 259c9 19 24 55 25 55c29 -38 39 -146 40 -184c0 -21 -24 -65 -52 -59c-9 3 -43 11 -44 54c-1 45 17 105 31 134zM136 460c-19 13 -92 134 -59 195c14 26 71 43 95 -2
c27 -51 -31 -160 -36 -193z" />
    <glyph glyph-name="nine" unicode="9" 
d="M174 535c0 -68 -2 -240 -5 -349c-1 -28 -1 -46 -3 -72c-1 -20 -9 -42 -8 -61c5 -64 60 -64 84 3c10 30 26 615 8 660c-14 34 -65 45 -108 43c-102 -4 -157 -96 -124 -200c21 -65 126 -91 156 -24zM139 570c-29 -11 -68 -2 -68 46c0 28 35 80 68 80s51 -23 51 -52
s-18 -63 -51 -74z" />
    <glyph glyph-name="asterisk" unicode="*" horiz-adv-x="380" 
d="M129 621c-3 2 -7 3 -9 5c-9 8 -18 17 -26 25c-9 9 -17 18 -25 26c-8 7 -20 8 -28 3s-11 -14 -9 -22c2 -17 7 -34 22 -45c8 -6 16 -14 24 -21c8 -8 17 -17 25 -26c8 -8 8 -17 -2 -23c-10 -8 -19 -18 -33 -18c-2 0 -4 -1 -6 -2c-8 -4 -12 -11 -9 -19c3 -10 11 -16 20 -14
c11 2 21 6 31 8c6 2 12 3 19 3c8 1 12 -4 9 -12c-2 -6 -5 -13 -9 -19c-5 -11 -6 -22 -5 -33c0 -14 8 -19 21 -16c7 2 12 5 16 11c2 3 5 7 8 10c6 6 13 6 17 -2c2 -4 3 -8 5 -12c4 -7 10 -11 19 -9c12 16 12 16 14 34c0 4 1 7 2 11s6 6 10 4c8 -4 15 -8 22 -12
c9 -5 19 -10 29 -14c10 -3 19 -1 28 5c7 4 9 8 7 16c-2 9 -6 17 -14 23c-11 7 -21 14 -31 22s-22 14 -26 27c2 10 9 14 18 17c19 8 38 15 58 19c8 1 16 4 22 9c13 10 10 28 -5 33c-8 3 -15 4 -23 2c-13 -3 -27 -5 -40 -7c-4 -1 -8 -1 -13 -1c-4 1 -7 6 -5 10c3 7 7 14 11 20
c8 12 13 25 15 40c1 7 -3 12 -10 13c-15 3 -27 -2 -35 -14c-11 -15 -21 -30 -31 -46c-3 -4 -7 -7 -11 -10c-3 -3 -7 -1 -9 2c-2 4 -4 9 -6 14c-3 13 -5 27 -8 41s-5 27 -14 38s-18 11 -27 1c-2 -4 -5 -7 -6 -11c-3 -10 -5 -20 -2 -30c3 -9 6 -18 9 -28c3 -9 5 -18 -4 -26z
M77 514h2c1 0 1 -1 1 -1c-1 -1 -2 -1 -2 -1s-1 1 -1 2zM77 514c0 -1 1 -2 1 -2s1 0 2 1c0 0 0 1 -1 1h-2z" />
    <glyph glyph-name="backslash" unicode="\" horiz-adv-x="380" 
d="M323 53c0 4 -2 14 -6 25c-9 20 -19 40 -24 62c-3 12 -7 24 -11 36c-6 16 -13 32 -18 50c-10 37 -89 234 -91 240c-9 27 -19 46 -29 72c-3 11 -8 19 -10 29c-9 27 -19 55 -27 82c-8 23 -21 44 -23 68c-1 3 -3 5 -6 7c-20 16 -45 7 -51 -18c-3 -9 -1 -18 1 -27
c4 -14 8 -29 12 -42c13 -37 21 -73 106 -295c14 -33 71 -249 79 -282c5 -16 13 -30 25 -41c9 -8 21 -12 35 -14c22 -1 38 15 38 48z" />
    <glyph glyph-name="bullet" unicode="&#x2022;" horiz-adv-x="250" 
d="M219 303c-3 11 -3 25 -10 35c-21 33 -52 50 -92 52c-19 2 -40 -4 -53 -19c-26 -30 -35 -97 22 -121c31 -12 59 -14 90 -5c26 6 40 29 43 58z" />
    <glyph glyph-name="colon" unicode=":" horiz-adv-x="200" 
d="M96 407c9 2 19 3 27 6c33 13 43 54 19 77c-19 18 -43 26 -69 23c-22 -3 -35 -17 -41 -36c-5 -18 -1 -37 13 -51c15 -13 32 -18 51 -19zM82 14c14 0 27 0 39 7c17 9 27 28 24 45c-1 15 -11 22 -21 29c-21 19 -47 19 -72 7c-25 -13 -29 -51 -11 -70c12 -13 25 -20 41 -18z
" />
    <glyph glyph-name="comma" unicode="," horiz-adv-x="170" 
d="M68 -32c18 -3 31 -2 40 12c4 4 7 11 8 17c4 16 6 31 8 47c1 2 0 4 0 6c-3 18 -22 35 -40 36c-9 2 -19 0 -28 -2c-24 -9 -28 -38 -8 -54c2 -2 5 -3 7 -6c2 -2 6 -6 7 -10c2 -6 3 -12 3 -18c2 -9 2 -18 3 -28z" />
    <glyph glyph-name="ellipsis" unicode="&#x2026;" horiz-adv-x="0" 
d="M137 60c-2 6 -2 14 -6 19c-12 19 -31 30 -53 31c-11 0 -23 -2 -31 -11c-15 -17 -20 -56 13 -69c17 -9 34 -9 52 -4c15 4 23 16 25 34zM137 60c-2 6 -2 14 -6 19c-12 19 -31 30 -53 31c-11 0 -23 -2 -31 -11c-15 -17 -20 -56 13 -69c17 -9 34 -9 52 -4c15 4 23 16 25 34z
M137 60c-2 6 -2 14 -6 19c-12 19 -31 30 -53 31c-11 0 -23 -2 -31 -11c-15 -17 -20 -56 13 -69c17 -9 34 -9 52 -4c15 4 23 16 25 34z" />
    <glyph glyph-name="exclam" unicode="!" horiz-adv-x="220" 
d="M67 574c-3 -38 3 -277 6 -306c3 -28 8 -55 5 -83c0 -9 0 -18 2 -27c0 -7 2 -13 6 -18c11 -16 27 -24 46 -21c17 2 32 17 35 35c3 12 4 23 1 34c-3 18 -6 35 -8 53c-3 20 -5 41 -8 61c-1 16 -4 33 -4 49c-1 61 -3 122 -1 183c2 43 1 87 2 130c0 9 1 18 1 27
c2 26 -11 41 -34 43c-3 0 -7 -1 -10 -1c-11 -3 -19 -9 -26 -18s-13 -17 -13 -30c1 -35 0 -70 0 -111zM130 79c-22 -2 -40 -7 -52 -26c-2 -3 -4 -8 -3 -13c1 -20 19 -36 39 -35c14 0 27 5 38 12c22 15 19 47 -5 57c-5 3 -13 4 -17 5z" />
    <glyph glyph-name="exclamdown" unicode="&#xa1;" horiz-adv-x="220" 
d="M128 536h-1v51c-1 9 -1 17 -4 25c-7 20 -24 28 -44 24c-5 -1 -10 -3 -15 -4c-15 -5 -22 -17 -23 -32c-1 -6 0 -12 1 -17c3 -25 9 -50 11 -76c3 -35 2 -70 3 -106c1 -11 0 -23 1 -34c3 -37 6 -74 9 -110c1 -24 3 -47 7 -70c3 -27 6 -54 6 -81c-1 -24 2 -48 3 -72
c0 -9 5 -15 12 -18c5 -2 9 -5 14 -7c20 -8 50 7 49 28c-1 14 -10 90 -10 115c1 42 -17 255 -18 276c-2 36 -1 72 -1 108zM75 660c22 0 45 17 50 39c1 4 0 9 -1 13c-6 14 -26 27 -43 26c-23 -1 -37 -16 -47 -34c-2 -3 -2 -8 -1 -12c4 -20 20 -31 42 -32z" />
    <glyph glyph-name="numbersign" unicode="#" horiz-adv-x="450" 
d="M342 363c12 5 23 9 33 13c11 3 21 10 27 20s6 19 0 30c-7 11 -17 11 -29 7c-31 -11 -26 21 -25 43c0 2 1 4 1 6c5 43 13 85 22 126c3 13 4 27 6 40c2 12 -3 19 -12 25c-23 15 -55 2 -60 -25c0 -5 -2 -10 -2 -15c0 -19 -3 -38 -5 -57c-3 -16 -3 -33 -5 -49
c-3 -23 -9 -46 -11 -69c-3 -17 4 -33 -35 -35c-5 0 -11 -2 -16 -3c-10 0 -15 5 -16 15c0 4 0 10 1 14c3 29 14 57 18 85c5 31 14 61 14 91c0 7 3 15 4 23c1 6 -2 11 -7 14c-17 13 -42 11 -57 -5c-2 -2 -3 -6 -4 -9c-4 -12 -3 -25 -4 -37c-5 -31 -1 -39 -13 -93
c0 -2 -1 -5 -1 -8c-1 -25 -6 -49 -14 -73c-6 -20 -17 -31 -38 -36c-12 -2 -24 -8 -36 -12c-8 -2 -15 -8 -20 -15c-9 -13 -8 -27 5 -38c9 -7 19 -13 31 -14c4 -1 30 -6 27 -11l-8 -15c-8 -15 -86 -13 -87 -30l-3 -6c-3 -9 0 -15 6 -21c10 -10 22 -13 35 -14c9 -1 17 -1 26 -1
c14 0 19 -5 20 -19c0 -10 -1 -21 -2 -32c-4 -19 -8 -39 -12 -58c-5 -28 -8 -55 12 -79c1 -1 2 -2 4 -3s5 -2 8 -2c12 -2 21 3 28 14c10 18 13 38 17 57c5 25 6 51 10 76c2 18 12 50 20 68c6 14 12 7 27 8c13 1 21 3 20 -11c-2 -23 -4 -54 -11 -77c-4 -10 -7 -20 -8 -31
c-6 -31 -11 -62 -12 -93c0 -6 1 -11 4 -16c4 -8 12 -11 20 -15c18 -7 37 0 43 19c2 5 2 10 3 15c3 24 5 49 8 73c1 8 3 16 4 24c5 35 12 71 23 106c3 12 11 19 23 23c8 2 16 3 25 5c11 2 23 4 35 8c21 6 28 26 18 45c-16 30 -110 -47 -75 34zM220 324c-2 1 -6 2 -9 3
c-3 2 -3 7 -1 10c6 8 30 14 40 11c2 -1 4 -3 4 -4c0 -3 0 -6 -2 -8c-9 -6 -20 -11 -32 -12zM42 255c1 0 0 1 1 1c0 1 1 0 2 0c0 0 0 -1 -1 -1h-2zM42 255h2c1 0 1 1 1 1c-1 0 -2 1 -2 0c-1 0 0 -1 -1 -1z" />
    <glyph glyph-name="period" unicode="." horiz-adv-x="180" 
d="M137 60c-2 6 -2 14 -6 19c-12 19 -31 30 -53 31c-11 0 -23 -2 -31 -11c-15 -17 -20 -56 13 -69c17 -9 34 -9 52 -4c15 4 23 16 25 34z" />
    <glyph glyph-name="periodcentered" unicode="&#xb7;" horiz-adv-x="240" 
d="M177 258c-2 7 -2 16 -6 22c-13 20 -33 31 -58 32c-12 2 -25 -2 -33 -12c-16 -18 -22 -60 14 -75c19 -8 37 -9 56 -3c17 3 25 18 27 36z" />
    <glyph glyph-name="question" unicode="?" horiz-adv-x="280" 
d="M107 174c-1 2 -1 4 -1 2c0 2 0 0 1 -1c0 -2 -1 -5 0 -7c10 -19 36 -27 55 -18c1 0 2 1 3 2c10 9 19 19 20 34c0 7 1 13 0 19c-2 33 -4 65 -7 98c-3 36 -3 72 4 108c1 10 5 19 9 28c8 21 18 42 27 63c2 6 3 12 5 18s3 13 4 19c7 22 9 45 8 67c-1 32 -12 59 -41 75
c-5 3 -9 6 -14 9c-31 20 -125 3 -145 -64c-8 -27 -15 -50 -16 -77c0 -8 3 -15 11 -19c26 -14 63 5 60 31c0 34 11 62 27 74c10 7 18 11 29 8c11 -2 15 -10 18 -19c1 -4 1 -9 1 -13c0 -21 -3 -42 -8 -63c-5 -22 -42 -105 -46 -116c-8 -25 -11 -51 -9 -78c4 -52 5 -105 0 -157
c-1 -8 0 -16 5 -23zM144 83c-13 0 -19 1 -29 -6c-21 -15 -21 -44 -12 -58c2 -4 6 -6 9 -9c9 -8 19 -10 30 -10c20 1 33 12 40 30c9 22 -8 52 -38 53zM107 174v1c-1 1 -1 3 -1 1c0 2 0 0 1 -2z" />
    <glyph glyph-name="questiondown" unicode="&#xbf;" horiz-adv-x="280" 
d="M201 450v0v67c0 12 0 23 -5 34c-3 8 -9 12 -17 14c-18 4 -30 -2 -39 -18c-2 -4 -4 -8 -7 -12c-2 -5 -4 -9 -4 -15c-1 -21 -2 -42 -2 -63c-1 -37 -4 -73 -11 -110c-5 -26 -13 -51 -26 -73c-17 -29 -33 -59 -47 -88c-4 -11 -9 -21 -10 -32c-3 -20 -5 -40 -5 -60
c1 -31 12 -54 36 -72c16 -14 62 -22 104 -17c32 4 59 20 81 42c16 15 24 46 12 71c-14 27 -57 25 -71 5c-4 -4 -5 -9 -6 -14c-9 -44 -81 -70 -74 10c2 28 17 52 31 78c8 17 14 33 25 51c28 46 35 177 35 202zM166 710c-9 1 -19 -1 -28 -6c-26 -12 -32 -52 -11 -71
c16 -15 49 -21 73 -4c22 17 20 59 -3 74c-10 5 -20 7 -31 7z" />
    <glyph glyph-name="quotedbl" unicode="&#x22;" 
d="M168 636c3 3 8 6 10 10c6 16 12 32 16 48c3 11 3 23 3 34c0 10 -3 18 -9 26c-4 6 -9 9 -15 10c-33 5 -43 -21 -35 -52c1 -4 3 -8 3 -12c1 -19 -3 -82 27 -64zM106 713c1 9 0 18 -5 27c-8 15 -24 24 -33 18c-14 -10 -18 -15 -19 -41c-1 -6 4 -11 4 -17c1 -10 0 -21 1 -31
c2 -21 2 -43 26 -32c17 8 24 58 26 76z" />
    <glyph glyph-name="quotesingle" unicode="'" horiz-adv-x="130" 
d="M61 664c11 2 11 2 18 18c6 13 13 26 18 40c3 9 4 18 5 27c1 18 -7 30 -24 39c-14 7 -14 -4 -27 2c-21 10 -45 -138 10 -126z" />
    <glyph glyph-name="semicolon" unicode=";" horiz-adv-x="200" 
d="M93 -52c20 -5 33 -2 43 12c4 6 8 12 9 18c4 18 6 35 9 52c1 3 1 5 0 6c-4 20 -25 40 -44 41c-11 0 -21 -1 -30 -4c-26 -10 -31 -40 -9 -59c2 -1 5 -2 7 -5c3 -3 6 -7 8 -11c2 -6 3 -13 5 -21c1 -10 1 -20 2 -29zM151 294c0 25 -9 34 -30 39c-19 5 -33 -1 -46 -12
c-24 -23 -16 -53 11 -63c21 -7 37 -1 53 11c9 6 13 15 12 25z" />
    <glyph glyph-name="slash" unicode="/" horiz-adv-x="370" 
d="M37 53c0 4 2 14 6 25c9 21 19 40 25 62c3 12 7 25 11 37c6 16 13 32 18 50c10 37 89 235 91 241c10 28 20 47 29 72c3 12 8 20 10 30c9 27 19 56 27 82c9 24 9 48 24 69c2 2 3 5 6 7c20 17 45 8 51 -18c3 -9 1 -18 -1 -27c-4 -15 -8 -30 -11 -42
c-14 -38 -22 -74 -107 -298c-14 -32 -72 -250 -80 -283c-5 -16 -14 -31 -25 -42c-9 -8 -21 -11 -35 -13c-23 -1 -39 14 -39 48z" />
    <glyph glyph-name="underscore" unicode="_" horiz-adv-x="430" 
d="M185 0c4 -2 7 -4 10 -4c6 1 13 2 20 4c23 4 47 7 70 5c27 -2 54 -1 81 -1c10 0 19 5 26 11c4 3 6 7 6 12c0 8 -3 15 -10 19c-10 7 -22 11 -34 10c-17 0 -36 -1 -53 -3c-14 -1 -84 -4 -102 -5c-26 -2 -52 -6 -78 -6c-7 0 -15 1 -23 1c-9 1 -19 2 -29 2
c-12 0 -22 -2 -28 -18c-1 -2 -1 -4 -1 -7c-1 -3 0 -6 0 -9c4 -4 4 -17 28 -17c3 0 8 -1 11 -2h10c22 0 45 0 67 1c10 0 20 -1 29 7z" />
    <glyph glyph-name="braceleft" unicode="{" horiz-adv-x="400" 
d="M342 -58c-3 2 -5 3 -9 5c-6 7 -15 7 -26 3c-7 -5 -14 -7 -22 -9c-7 -3 -11 -4 -18 -3c-17 3 -34 20 -35 37c0 20 -1 40 -1 61c1 61 2 120 -1 181c-2 29 -7 53 -23 76c-3 6 -7 12 -10 19c-5 7 -5 15 -1 23c1 2 2 4 4 7c17 22 19 50 23 76c3 15 1 31 -1 46
c-4 26 -9 49 -15 72c-7 27 -7 53 -10 80c-1 22 1 42 4 62c4 16 15 26 31 27c12 0 22 7 33 10c6 3 10 10 11 16c1 12 -4 24 -15 30c-8 2 -16 5 -22 6h-38c-29 -1 -49 -20 -66 -40c-12 -15 -16 -35 -16 -56c1 -17 3 -36 5 -55c4 -11 8 -22 10 -35c0 -11 4 -23 6 -34
c6 -30 16 -59 13 -90c0 -4 0 -6 1 -8c2 -24 -5 -45 -17 -66c-15 -20 -32 -36 -58 -42c-3 -2 -5 -3 -10 -5c-13 -8 -17 -23 -11 -37c8 -18 27 -29 47 -26c6 0 12 1 17 3c12 5 23 0 32 -15c7 -9 10 -20 10 -32c2 -24 3 -48 5 -70l-4 -46c-4 -29 -10 -61 -9 -91
c1 -6 0 -11 0 -17c-3 -21 3 -43 8 -62c3 -12 11 -22 21 -28c5 -5 12 -8 15 -12c26 -21 54 -27 86 -21c14 2 28 8 40 17c13 10 21 24 16 43z" />
    <glyph glyph-name="braceright" unicode="}" horiz-adv-x="400" 
d="M94 720c3 -2 5 -3 8 -5c6 -8 15 -8 26 -5c7 5 15 7 23 8c7 3 11 4 18 3c17 -4 33 -22 33 -39c-1 -20 -1 -40 -2 -61c-3 -61 -7 -120 -7 -181c1 -29 5 -53 20 -77c3 -6 7 -12 9 -19c5 -7 5 -15 0 -23c-1 -2 -2 -4 -4 -7c-18 -21 -21 -49 -26 -75c-4 -15 -3 -31 -1 -46
c2 -26 6 -49 11 -72c6 -28 5 -54 7 -81c0 -22 -3 -42 -7 -62c-5 -15 -16 -25 -32 -25c-12 0 -22 -6 -33 -9c-7 -2 -11 -9 -12 -15c-2 -12 3 -24 14 -31c7 -2 15 -6 21 -7c13 0 24 -1 38 -1c29 -1 50 17 68 37c13 14 17 34 18 55c0 17 -1 36 -2 55c-4 11 -7 22 -9 35
c1 11 -3 24 -4 35c-5 30 -14 59 -9 90c0 4 0 6 -1 8c-1 24 7 45 20 65c16 20 34 35 60 40c3 2 5 3 10 4c13 8 18 23 13 37c-8 18 -26 30 -46 28c-6 0 -12 -1 -17 -2c-12 -5 -23 1 -32 16c-6 9 -9 20 -8 32c-1 24 -1 48 -2 71l6 45c5 29 13 61 13 91c-1 6 0 11 1 17
c4 21 -1 43 -6 62c-2 12 -10 23 -19 29c-5 5 -12 9 -15 13c-25 22 -53 29 -85 24c-14 -1 -28 -6 -40 -15c-14 -9 -23 -23 -18 -42z" />
    <glyph glyph-name="parenleft" unicode="(" horiz-adv-x="300" 
d="M70 189c5 -14 9 -29 10 -42c1 -26 16 -50 17 -76c0 -10 4 -18 8 -26c5 -18 10 -38 18 -56c14 -26 35 -49 55 -70c6 -6 14 -11 23 -14c14 -5 28 -5 43 3c11 7 16 17 13 29c-5 16 -12 33 -22 47c-11 16 -20 33 -29 50c-10 16 -17 32 -20 49c-9 35 -17 69 -24 101
c-4 14 -6 26 -7 40c-3 15 -5 30 -7 43c0 13 2 25 0 36c-1 48 2 95 9 142c3 14 3 27 6 41c6 25 14 51 23 76c3 15 10 30 15 43c7 25 18 48 33 70c6 8 11 16 18 25c7 15 5 32 -9 45c-8 8 -19 12 -31 15c-25 3 -48 -9 -56 -34c-8 -17 -14 -35 -23 -52c-3 -13 -8 -26 -16 -39
c-12 -27 -23 -56 -28 -85c-7 -32 -10 -63 -18 -92c-6 -28 -11 -229 -1 -269z" />
    <glyph glyph-name="parenright" unicode=")" horiz-adv-x="300" 
d="M221 459c-5 14 -10 29 -10 42c-1 25 -17 50 -18 76c0 10 -4 18 -8 26c-5 17 -10 38 -18 56c-14 25 -35 48 -55 69c-6 7 -14 12 -23 14c-14 6 -28 5 -43 -3c-11 -7 -16 -17 -13 -29c5 -16 12 -33 22 -47c11 -16 20 -33 29 -50c10 -16 18 -31 20 -49c10 -35 18 -69 25 -100
c3 -15 5 -26 7 -40c3 -16 4 -31 7 -43c0 -13 -2 -25 0 -36c1 -49 -2 -96 -8 -142c-4 -15 -4 -28 -6 -42c-6 -24 -14 -51 -23 -76c-4 -15 -10 -29 -15 -43c-7 -24 -18 -47 -33 -70c-6 -8 -10 -16 -18 -24c-7 -16 -5 -33 10 -46c7 -7 19 -11 30 -14c25 -4 48 8 56 34
c8 17 14 34 23 52c3 12 8 26 16 38c12 27 23 56 27 85c7 33 10 64 19 93c5 27 10 229 0 269z" />
    <glyph glyph-name="hyphen" unicode="-" horiz-adv-x="400" 
d="M161 266c4 -2 7 -4 10 -4c6 1 13 2 20 4c23 4 47 7 70 5c27 -2 54 -1 81 -1c10 0 19 5 26 11c4 3 6 7 6 12c0 8 -3 15 -10 19c-10 7 -22 11 -34 10c-17 0 -36 -1 -53 -3c-14 -1 -84 -4 -102 -5c-26 -2 -52 -6 -78 -6c-7 0 -15 1 -23 1c-9 1 -19 2 -29 2
c-12 0 -22 -2 -28 -18c-1 -2 -1 -4 -1 -7c-1 -3 0 -6 0 -9c4 -4 4 -17 28 -17c3 0 8 -1 11 -2h10c22 0 45 0 67 1c10 0 20 -1 29 7z" />
    <glyph glyph-name="guilsinglleft" unicode="&#x2039;" horiz-adv-x="300" 
d="M273 392c-18 5 -37 5 -48 -12c-8 -4 -21 -7 -30 -16c-8 -5 -21 -7 -30 -17c-13 -2 -22 -12 -37 -20c-23 -13 -46 -26 -70 -44c-5 2 -7 -4 -14 -8c-8 -4 -10 -10 -19 -20c-13 -2 -16 -14 -12 -22c-4 -12 1 -19 5 -27c4 -7 11 -11 19 -18c26 -20 61 -30 85 -55
c0 0 54 -32 59 -34c4 -7 18 -5 31 -3c13 3 22 13 25 24c0 19 -58 59 -68 68c-11 3 -21 13 -27 15c-4 7 -9 9 -13 16c-10 9 -13 23 -4 32c8 4 8 4 9 10c23 13 47 31 73 37c22 12 44 18 66 31c8 4 9 9 17 14c7 4 11 15 6 23c-2 14 -12 23 -23 26zM138 317l2 6l-2 -6v0v0z
M138 317v0v0l2 6z" />
    <glyph glyph-name="guilsinglright" unicode="&#x203a;" horiz-adv-x="300" 
d="M67 104c19 0 37 6 43 25c6 6 18 12 24 24c6 6 18 12 24 24c12 6 18 18 30 30c19 19 37 37 55 61c6 0 6 6 12 12s6 12 12 24c12 6 12 18 6 25c0 12 -6 18 -12 24s-14 8 -24 12c-30 12 -67 12 -97 30c0 0 -60 16 -66 16c-6 6 -18 0 -30 -6s-18 -18 -18 -30
c6 -18 72 -40 84 -46c12 0 24 -7 30 -7c6 -6 12 -6 18 -12c12 -6 18 -18 12 -30c-6 -6 -6 -6 -6 -12c-18 -18 -36 -42 -60 -55c-18 -18 -37 -30 -55 -48c-6 -6 -6 -12 -12 -18s-6 -18 0 -24c6 -13 18 -19 30 -19zM176 213v-6v6v0v0zM176 213v0v0v-6v6z" />
    <glyph glyph-name="space" unicode=" " horiz-adv-x="230" 
 />
    <glyph glyph-name="minus" unicode="&#x2212;" horiz-adv-x="500" 
d="M161 266c4 -2 7 -4 10 -4c6 1 13 2 20 4c23 4 161 0 184 -2c27 -2 54 -1 81 -1c10 0 19 5 26 11c4 3 6 7 6 12c0 8 -3 15 -10 19c-10 7 -22 11 -34 10c-17 0 -36 -1 -53 -3c-14 -1 -198 3 -216 2c-26 -2 -52 -6 -78 -6c-7 0 -15 1 -23 1c-9 1 -19 2 -29 2
c-12 0 -22 -2 -28 -18c-1 -2 -1 -4 -1 -7c-1 -3 0 -6 0 -9c4 -4 4 -17 28 -17c3 0 8 -1 11 -2h10c22 0 45 0 67 1c10 0 20 -1 29 7z" />
    <glyph glyph-name="plus" unicode="+" horiz-adv-x="540" 
d="M514 316c7 -4 10 -11 10 -19c0 -5 -2 -9 -6 -12c-7 -6 -16 -11 -26 -11c-27 0 -54 -1 -81 1c-12 1 -67 2 -120 3c0 -22 1 -38 2 -44c2 -7 3 -14 4 -20c0 -3 -2 -6 -4 -10c8 -9 7 -19 7 -29c1 -22 1 -45 1 -67v-10c-1 -3 -2 -8 -2 -11c0 -24 -13 -24 -17 -28
c-3 0 -6 -1 -9 0c-3 0 -5 0 -7 1c-16 6 -18 16 -18 28c0 10 1 20 2 29c0 8 1 16 1 23c0 26 -4 52 -6 78v60c-26 0 -47 -1 -54 -2c-7 -2 -14 -3 -20 -4c-3 0 -6 2 -10 4c-9 -8 -19 -7 -29 -7c-22 -1 -45 -1 -67 -1h-10c-3 1 -8 2 -11 2c-24 0 -24 13 -28 17c0 3 -1 6 0 9
c0 3 0 5 1 7c6 16 16 18 28 18c10 0 20 -1 29 -2c8 0 16 -1 23 -1c26 0 52 4 78 6h70c1 65 2 138 1 146c-2 17 -3 36 -3 53c-1 12 3 24 10 34c4 7 11 10 19 10c5 0 9 -2 12 -6c6 -7 11 -16 11 -26c0 -27 1 -54 -1 -81c-1 -13 -3 -75 -3 -130c63 -1 129 -2 136 -1
c17 2 36 3 53 3c12 1 24 -3 34 -10z" />
    <glyph glyph-name="ampersand" unicode="&#x26;" horiz-adv-x="600" 
d="M181 620c-10 -1 -17 -1 -25 -2c-22 -2 -41 -12 -57 -25c-17 -15 -26 -33 -35 -53c-1 -3 0 -8 0 -11c2 -13 -3 -24 -1 -38c12 -68 68 -223 201 -385c18 -22 43 -29 69 -21c5 3 12 6 15 10c14 16 25 26 40 41c50 50 163 338 163 377c0 9 3 19 4 28c1 26 -5 49 -25 68
c-7 7 -13 12 -22 12c-25 -1 -51 0 -70 -18c-3 -3 -6 -5 -8 -6c-21 -9 -38 -23 -54 -36c-11 -10 -23 -18 -34 -27c-10 -7 -20 -6 -30 1c-3 3 -7 6 -9 8c-17 16 -35 32 -51 47c-21 20 -46 28 -71 30z" />
    <glyph glyph-name="at" unicode="@" horiz-adv-x="600" 
d="M131 605c-16 1 -27 -4 -34 -13c-15 -18 -30 -36 -43 -55c-6 -8 -10 -18 -14 -27s0 -18 7 -25c7 -6 13 -1 19 2c3 1 7 3 9 6c9 9 17 19 25 29c3 3 6 8 10 11c8 8 16 8 24 0c5 -5 9 -12 13 -17c11 -15 23 -29 39 -39c9 -5 19 -6 29 -4c15 4 23 18 17 33c-2 6 -5 11 -10 16
c-15 18 -31 37 -47 54c-8 9 -17 16 -26 22c-7 4 -15 6 -18 7zM477 595c-12 -2 -26 -4 -35 -14c-15 -18 -30 -36 -44 -55c-5 -7 -7 -15 -7 -24c1 -7 5 -12 12 -14c13 -4 25 -2 35 7c8 8 15 16 23 23c8 8 15 9 24 2c7 -5 13 -11 20 -17c9 -9 20 -15 33 -17c13 -1 26 5 33 18
c5 11 -3 18 -7 25c-1 2 -3 4 -5 5c-12 14 -24 28 -37 40c-12 11 -26 21 -45 21zM346 86c-5 2 -8 3 -10 3c-6 2 -12 2 -17 3c-9 3 -11 9 -8 17c2 4 5 8 7 13c4 9 2 18 -5 26c-12 14 -28 23 -48 23c-19 0 -32 -9 -41 -25c-8 -14 -8 -28 2 -42c5 -6 6 -13 1 -19s-5 -12 -4 -18
c0 -9 5 -14 13 -13c5 0 11 1 16 3c11 4 22 5 34 3c4 0 8 -1 12 -2c21 -1 37 7 48 28zM504 96c6 9 7 17 0 26c-5 7 -3 11 6 14c2 1 6 2 8 3c4 1 6 4 6 8c-1 5 -3 7 -7 9c-3 1 -7 2 -10 2c-24 2 -48 4 -73 6c-9 0 -18 -2 -27 -6c-10 -6 -12 -16 -6 -25c2 -3 4 -6 7 -8
c6 -7 13 -13 20 -21c11 4 21 -1 32 -5c6 -2 12 -3 19 -3c7 -1 16 0 25 0zM455 282c-10 0 -21 -4 -31 -11c-4 -4 -9 -9 -9 -14c-2 -12 1 -24 12 -32c16 -9 32 -12 49 -3c12 6 19 18 17 31c-2 19 -15 30 -38 29zM73 229c11 0 21 4 30 12c7 7 8 25 2 34c-11 14 -31 20 -48 13
c-12 -4 -21 -18 -20 -32c1 -13 9 -22 24 -25c4 -1 7 -1 12 -2zM95 95c30 0 37 8 55 11c22 4 30 7 18 25c-8 12 -20 18 -33 22c-14 5 -29 5 -44 6c-11 1 -18 -4 -24 -11c-2 -4 -3 -8 -1 -12c7 -13 10 -7 9 -21c7 -5 6 -6 20 -20z" />
    <glyph glyph-name="asciicircum" unicode="^" horiz-adv-x="400" 
d="M200 598c-18 5 -27 2 -39 -12l-53 -69c-12 -20 -33 -48 -50 -65c-6 -5 -11 -11 -15 -18c-3 -6 -8 -14 -10 -20c-5 -15 -3 -23 8 -34c8 -8 26 -14 38 -9c9 4 14 11 18 20c13 27 28 54 77 112c6 8 16 7 24 1l35 -33l73 -83c6 -10 16 -14 26 -17c6 -2 11 -1 17 1
c16 8 25 30 17 48c-3 7 -8 14 -14 20c-23 24 -115 112 -128 141c-5 9 -13 15 -24 17z" />
    <glyph glyph-name="acute" unicode="&#xb4;" horiz-adv-x="400" 
d="M147 619c11 -4 11 -4 25 7c11 8 24 16 35 26c6 7 12 13 61 66c11 16 9 30 -1 46c-9 14 -14 4 -23 15c-13 20 -151 -143 -97 -160z" />
    <glyph glyph-name="dieresis" unicode="&#xa8;" horiz-adv-x="400" 
d="M350 674c-2 6 -2 14 -6 19c-12 19 -31 30 -53 31c-11 0 -23 -2 -33 -10c-13 -18 -18 -57 15 -70c17 -9 34 -9 51 -4c16 4 24 16 26 34zM350 674c-2 6 -2 14 -6 19c-12 19 -31 30 -53 31c-11 0 -23 -2 -33 -10c-13 -18 -18 -57 15 -70c17 -9 34 -9 51 -4c16 4 24 16 26 34
zM350 674c-2 6 -2 14 -6 19c-12 19 -31 30 -53 31c-11 0 -23 -2 -33 -10c-13 -18 -18 -57 15 -70c17 -9 34 -9 51 -4c16 4 24 16 26 34zM160 684c-2 6 -2 14 -6 19c-12 19 -31 30 -53 31c-11 0 -23 -2 -33 -10c-13 -18 -18 -57 15 -70c17 -9 34 -9 51 -4c16 4 24 16 26 34z
M160 684c-2 6 -2 14 -6 19c-12 19 -31 30 -53 31c-11 0 -23 -2 -33 -10c-13 -18 -18 -57 15 -70c17 -9 34 -9 51 -4c16 4 24 16 26 34zM160 684c-2 6 -2 14 -6 19c-12 19 -31 30 -53 31c-11 0 -23 -2 -33 -10c-13 -18 -18 -57 15 -70c17 -9 34 -9 51 -4c16 4 24 16 26 34z
" />
    <glyph glyph-name="grave" unicode="`" horiz-adv-x="400" 
d="M279 637c6 10 6 10 -2 25c-6 12 -12 27 -20 39c-6 7 -10 14 -55 71c-14 14 -28 14 -46 7c-15 -7 -5 -14 -19 -21c-21 -9 117 -172 142 -121z" />
    <glyph glyph-name="tilde" unicode="&#x2dc;" horiz-adv-x="400" 
d="M177 661c4 -2 7 -4 10 -4c6 1 13 2 20 4c23 4 15 5 38 3c27 -2 54 -1 81 -1c10 0 19 5 26 11c4 3 6 7 6 12c0 8 -3 15 -10 19c-10 7 -22 11 -34 10c-17 0 -36 -1 -53 -3c-14 -1 -52 -2 -70 -3c-26 -2 -52 -6 -78 -6c-7 0 -15 1 -23 1c-9 1 -19 2 -29 2
c-12 0 -22 -2 -28 -18c-1 -2 -1 -4 -1 -7c-1 -3 0 -6 0 -9c4 -4 4 -17 28 -17c3 0 8 -1 11 -2h10c22 0 45 0 67 1c10 0 20 -1 29 7z" />
    </font>
</defs>
</svg>
